HIERARCHY
ROOT Hips
{
	OFFSET 0.000000 0.000000 0.000000
	CHANNELS 6 Xposition Yposition Zposition Zrotation Yrotation Xrotation 
	JOINT LowerBack
	{
		OFFSET 0.000000 0.000000 0.000000
		CHANNELS 3 Zrotation Yrotation Xrotation
		JOINT Spine
		{
			OFFSET 0.028270 2.035590 -0.193380
			CHANNELS 3 Zrotation Yrotation Xrotation
			JOINT Spine1
			{
				OFFSET 0.056720 2.048850 -0.042750
				CHANNELS 3 Zrotation Yrotation Xrotation
				JOINT Neck
				{
					OFFSET 0.000000 0.000000 0.000000
					CHANNELS 3 Zrotation Yrotation Xrotation
					JOINT Neck1
					{
						OFFSET -0.054170 1.746240 0.172020
						CHANNELS 3 Zrotation Yrotation Xrotation
						JOINT Head
						{
							OFFSET 0.104070 1.761360 -0.123970
							CHANNELS 3 Zrotation Yrotation Xrotation
							End Site
							{
								OFFSET 0.000000 0.000000 0.000000
							}
						}
					}
				}
				JOINT LeftShoulder
				{
					OFFSET 0.000000 0.000000 0.000000
					CHANNELS 3 Zrotation Yrotation Xrotation
					JOINT LeftArm
					{
						OFFSET 3.362410 1.200890 -0.311210
						CHANNELS 3 Zrotation Yrotation Xrotation
						JOINT LeftForeArm
						{
							OFFSET 4.983000 -0.000000 -0.000000
							CHANNELS 3 Zrotation Yrotation Xrotation
							JOINT LeftHand
							{
								OFFSET 3.483560 -0.000000 -0.000000
								CHANNELS 3 Zrotation Yrotation Xrotation
								JOINT LeftFingerBase
								{
									OFFSET 0.000000 0.000000 0.000000
									CHANNELS 3 Zrotation Yrotation Xrotation
									JOINT LeftHandIndex1
									{
										OFFSET 0.715260 -0.000000 -0.000000
										CHANNELS 3 Zrotation Yrotation Xrotation
										End Site
										{
											OFFSET 0.000000 0.000000 0.000000
										}
									}
								}
								JOINT LThumb
								{
									OFFSET 0.000000 0.000000 0.000000
									CHANNELS 3 Zrotation Yrotation Xrotation
									End Site
									{
										OFFSET 0.000000 0.000000 0.000000
									}
								}
							}
						}
					}
				}
				JOINT RightShoulder
				{
					OFFSET 0.000000 0.000000 0.000000
					CHANNELS 3 Zrotation Yrotation Xrotation
					JOINT RightArm
					{
						OFFSET -3.136600 1.374050 -0.404650
						CHANNELS 3 Zrotation Yrotation Xrotation
						JOINT RightForeArm
						{
							OFFSET -5.241900 -0.000000 -0.000000
							CHANNELS 3 Zrotation Yrotation Xrotation
							JOINT RightHand
							{
								OFFSET -3.444170 -0.000000 -0.000000
								CHANNELS 3 Zrotation Yrotation Xrotation
								JOINT RightFingerBase
								{
									OFFSET 0.000000 0.000000 0.000000
									CHANNELS 3 Zrotation Yrotation Xrotation
									JOINT RightHandIndex1
									{
										OFFSET -0.622530 -0.000000 -0.000000
										CHANNELS 3 Zrotation Yrotation Xrotation
										End Site
										{
											OFFSET 0.000000 0.000000 0.000000
										}
									}
								}
								JOINT RThumb
								{
									OFFSET 0.000000 0.000000 0.000000
									CHANNELS 3 Zrotation Yrotation Xrotation
									End Site
									{
										OFFSET 0.000000 0.000000 0.000000
									}
								}
							}
						}
					}
				}
			}
		}
	}
}
}
MOTION
Frames: 15
Frame Time: 0.008333
-3.205508 17.489315 -1.028990 -147.145760 85.458294 -146.801775 0.506627 2.938996 -2.340513 -0.359534 2.850706 -2.735309 -4.123101 2.815847 2.801481 7.253990 -12.643109 -9.797271 -0.211811 0.013360 -0.549310 0.000000 0.000000 0.000000 -5.072625 31.228795 1.342244 -81.903503 35.119574 1.666503 -3.849579 -25.642045 -0.021954 -4.975493 7.595313 -0.333082 -0.064498 -0.149715 -0.000000 0.000000 0.000000 0.000000 0.000000 0.000000 0.000000 1.972512 -6.144460 -0.223197 49.936308 9.150691 1.521024 1.761092 45.863583 0.001806 0.617993 -0.631167 -0.001826 0.071686 -0.134271 0.000000 0.000000 0.000000 0.000000 0.000000 0.000000 0.000000 
-2.981609 17.528516 -1.101955 -145.465513 85.006934 -145.422430 0.741251 2.941043 -2.327093 -0.305595 2.837737 -2.712830 -4.100629 2.805637 2.841950 7.212613 -12.793324 -9.763196 -0.153578 0.017657 -0.542174 0.000000 0.000000 0.000000 -4.962627 31.444363 1.388661 -82.629887 35.855095 1.296955 -3.934218 -25.820963 -0.025261 -6.290588 8.040677 -0.447441 -0.056826 -0.153386 -0.000000 0.000000 0.000000 0.000000 0.000000 0.000000 0.000000 1.761349 -6.348875 -0.264160 49.608313 9.320051 1.185487 1.717612 46.193227 0.002323 0.888509 -0.743391 -0.003853 0.066198 -0.134596 0.000000 0.000000 0.000000 0.000000 0.000000 0.000000 0.000000 
-2.761336 17.555822 -1.172926 -144.414094 84.484697 -144.671972 0.976149 2.909454 -2.255375 -0.252232 2.793281 -2.681938 -4.093569 2.764494 2.874210 7.204775 -12.938970 -9.757889 -0.111309 0.021182 -0.543183 0.000000 0.000000 0.000000 -4.834708 31.563768 1.453782 -83.347061 36.464612 1.040417 -4.015563 -25.993328 -0.029105 -7.672653 8.749157 -0.595407 -0.048363 -0.158751 -0.000000 0.000000 0.000000 0.000000 0.000000 0.000000 0.000000 1.644892 -6.547526 -0.298376 49.334365 9.430232 0.712883 1.676455 46.532101 0.002698 1.074366 -0.828923 -0.005577 0.061750 -0.135731 0.000000 0.000000 0.000000 0.000000 0.000000 0.000000 0.000000 
-2.544338 17.570345 -1.242454 -143.785138 83.900689 -144.339557 1.219805 2.850340 -2.130431 -0.197943 2.722790 -2.643725 -4.099662 2.697768 2.898298 7.221678 -13.079860 -9.778835 -0.084174 0.023950 -0.551517 0.000000 0.000000 0.000000 -4.706308 31.596227 1.533017 -84.032152 36.948269 0.923679 -4.087493 -26.175822 -0.033331 -9.055777 9.705837 -0.780982 -0.039617 -0.165740 -0.000000 0.000000 0.000000 0.000000 0.000000 0.000000 0.000000 1.611861 -6.738103 -0.325688 49.099155 9.467900 0.148217 1.637778 46.890690 0.002954 1.188484 -0.888975 -0.006896 0.058265 -0.137483 0.000000 0.000000 0.000000 0.000000 0.000000 0.000000 0.000000 
-2.330209 17.571406 -1.311165 -143.382495 83.266903 -144.230900 1.482456 2.769889 -1.952272 -0.140630 2.631940 -2.598126 -4.116078 2.611074 2.914804 7.254160 -13.219735 -9.823230 -0.070571 0.026041 -0.566389 0.000000 0.000000 0.000000 -4.596852 31.556400 1.620925 -84.662502 37.305705 0.966831 -4.144505 -26.382653 -0.037739 -10.381502 10.879117 -1.005159 -0.031042 -0.174067 -0.000000 0.000000 0.000000 0.000000 0.000000 0.000000 0.000000 1.648712 -6.922957 -0.345603 48.887355 9.435659 -0.454374 1.602299 47.265578 0.003107 1.244782 -0.925091 -0.007713 0.055661 -0.139599 0.000000 0.000000 0.000000 0.000000 0.000000 0.000000 0.000000 
-2.118086 17.558673 -1.379242 -143.199061 82.601942 -144.325979 1.752189 2.671955 -1.739473 -0.082933 2.524708 -2.549166 -4.140437 2.507961 2.923615 7.296957 -13.351059 -9.885378 -0.069643 0.027409 -0.586045 0.000000 0.000000 0.000000 -4.515419 31.454159 1.712565 -85.218618 37.547654 1.165854 -4.183770 -26.624982 -0.042123 -11.602871 12.222953 -1.264034 -0.023072 -0.183286 -0.000000 0.000000 0.000000 0.000000 0.000000 0.000000 0.000000 1.745127 -7.093953 -0.358192 48.694921 9.319523 -1.056541 1.571251 47.655785 0.003188 1.266390 -0.944439 -0.008028 0.053769 -0.141749 0.000000 0.000000 0.000000 0.000000 0.000000 0.000000 0.000000 
-1.907162 17.532124 -1.447076 -143.149718 81.924832 -144.533224 2.026010 2.561257 -1.503780 -0.025463 2.405628 -2.498994 -4.170219 2.392714 2.926175 7.345658 -13.476313 -9.961806 -0.079636 0.028125 -0.609452 0.000000 0.000000 0.000000 -4.472896 31.308072 1.802533 -85.681535 37.676397 1.518779 -4.203303 -26.901138 -0.046240 -12.683494 13.674232 -1.548105 -0.015982 -0.192808 0.000000 0.000000 0.000000 0.000000 0.000000 0.000000 0.000000 1.891049 -7.253248 -0.363202 48.515535 9.128539 -1.610517 1.546063 48.046218 0.003223 1.267837 -0.951221 -0.008141 0.052514 -0.143629 0.000000 0.000000 0.000000 0.000000 0.000000 0.000000 0.000000 
-1.697018 17.492004 -1.514847 -143.196669 81.255724 -144.812570 2.297174 2.441217 -1.251532 0.030497 2.278426 -2.448855 -4.203258 2.268883 2.922998 7.397267 -13.592407 -10.049263 -0.099072 0.028247 -0.635703 0.000000 0.000000 0.000000 -4.478530 31.132871 1.886640 -86.039675 37.688111 2.006510 -4.202847 -27.197741 -0.049850 -13.598281 15.157136 -1.842467 -0.009914 -0.201952 0.000000 0.000000 0.000000 0.000000 0.000000 0.000000 0.000000 2.076403 -7.397065 -0.360214 48.350047 8.868543 -2.092055 1.528238 48.423047 0.003239 1.267479 -0.953164 -0.008153 0.051756 -0.144972 0.000000 0.000000 0.000000 0.000000 0.000000 0.000000 0.000000 
-1.486995 17.438941 -1.582697 -143.299967 80.612693 -145.112881 2.560182 2.315683 -0.999060 0.083778 2.146628 -2.401794 -4.237995 2.139762 2.915246 7.451285 -13.697157 -10.145137 -0.126629 0.027819 -0.663962 0.000000 0.000000 0.000000 -4.535855 30.942777 1.961195 -86.285033 37.578322 2.604640 -4.183821 -27.489342 -0.052723 -14.329966 16.585648 -2.127619 -0.004910 -0.210017 0.000000 0.000000 0.000000 0.000000 0.000000 0.000000 0.000000 2.293926 -7.522716 -0.348968 48.202352 8.545841 -2.482024 1.519152 48.771067 0.003262 1.277644 -0.955567 -0.008263 0.051419 -0.145575 0.000000 0.000000 0.000000 0.000000 0.000000 0.000000 0.000000 
-1.277037 17.373784 -1.649978 -143.539962 80.021580 -145.519776 2.786063 2.184877 -0.741632 0.128642 2.012713 -2.356785 -4.273835 2.007886 2.903747 7.514283 -13.794291 -10.249478 -0.161108 0.026955 -0.694330 0.000000 0.000000 0.000000 -4.637657 30.746305 2.024113 -86.420041 37.330435 3.277129 -4.149197 -27.739347 -0.054689 -14.866729 17.871540 -2.381558 -0.000938 -0.216411 -0.000000 0.000000 0.000000 0.000000 0.000000 0.000000 0.000000 2.546481 -7.633961 -0.328839 48.080326 8.181656 -2.769762 1.519839 49.071396 0.003300 1.302607 -0.959777 -0.008471 0.051483 -0.145385 0.000000 0.000000 0.000000 0.000000 0.000000 0.000000 0.000000 
-1.066904 17.297742 -1.716737 -143.843153 79.490424 -145.945422 2.978626 2.052836 -0.496172 0.165768 1.879598 -2.316914 -4.310363 1.876067 2.889434 7.587109 -13.878412 -10.360829 -0.201708 0.025672 -0.726274 0.000000 0.000000 0.000000 -4.779098 30.549057 2.074196 -86.450833 36.931209 3.989151 -4.102255 -27.903669 -0.055612 -15.200197 18.927455 -2.581383 0.002086 -0.220565 -0.000000 0.000000 0.000000 0.000000 0.000000 0.000000 0.000000 2.827273 -7.724639 -0.299715 47.995906 7.775667 -2.966200 1.530996 49.315099 0.003367 1.347430 -0.966897 -0.008876 0.051905 -0.144406 0.000000 0.000000 0.000000 0.000000 0.000000 0.000000 0.000000 
-0.856853 17.212106 -1.782126 -144.269649 79.032943 -146.451231 3.116104 1.919509 -0.260504 0.190807 1.748717 -2.281552 -4.348164 1.745872 2.873118 7.677579 -13.950338 -10.479875 -0.247935 0.024031 -0.760042 0.000000 0.000000 0.000000 -4.941220 30.349617 2.112072 -86.393966 36.359571 4.697627 -4.047277 -27.934322 -0.055450 -15.324215 19.679925 -2.707593 0.004201 -0.222124 -0.000000 0.000000 0.000000 0.000000 0.000000 0.000000 0.000000 3.140797 -7.795861 -0.261507 47.964362 7.341210 -3.085605 1.552884 49.488769 0.003449 1.405771 -0.971892 -0.009379 0.052745 -0.142802 0.000000 0.000000 0.000000 0.000000 0.000000 0.000000 0.000000 
-0.647252 17.118392 -1.845691 -144.799047 78.649886 -147.010629 3.197141 1.786566 -0.039860 0.203491 1.621430 -2.251315 -4.387741 1.618756 2.855998 7.789172 -14.008678 -10.606692 -0.299364 0.022066 -0.795671 0.000000 0.000000 0.000000 -5.106151 30.144097 2.139280 -86.269545 35.595344 5.362337 -3.988121 -27.784225 -0.054228 -15.234539 20.073078 -2.745887 0.005401 -0.220836 0.000000 0.000000 0.000000 0.000000 0.000000 0.000000 0.000000 3.485291 -7.846517 -0.214688 48.002949 6.884058 -3.152026 1.585401 49.581919 0.003534 1.465641 -0.966510 -0.009777 0.054115 -0.140820 0.000000 0.000000 0.000000 0.000000 0.000000 0.000000 0.000000 
-0.438668 17.018206 -1.906900 -145.432586 78.337276 -147.620966 3.219935 1.654507 0.163128 0.203529 1.498046 -2.226164 -4.429625 1.495141 2.839551 7.924646 -14.052769 -10.741230 -0.355718 0.019801 -0.833224 0.000000 0.000000 0.000000 -5.251564 29.925964 2.158390 -86.100324 34.620001 5.943196 -3.928480 -27.411366 -0.052046 -14.928981 20.077284 -2.690166 0.005567 -0.216617 0.000000 0.000000 0.000000 0.000000 0.000000 0.000000 0.000000 3.859218 -7.877044 -0.160444 48.131200 6.409900 -3.193704 1.628086 49.582757 0.003586 1.507618 -0.939262 -0.009671 0.056192 -0.138773 0.000000 0.000000 0.000000 0.000000 0.000000 0.000000 0.000000 
-0.231776 16.913274 -1.965385 -146.153367 78.084012 -148.260074 3.190992 1.523940 0.343866 0.192340 1.378321 -2.206245 -4.473947 1.374854 2.825653 8.083208 -14.081998 -10.882761 -0.416677 0.017255 -0.872597 0.000000 0.000000 0.000000 -5.356296 29.688727 2.172309 -85.908694 33.418040 6.402424 -3.871268 -26.783458 -0.049055 -14.406799 19.690900 -2.543530 0.004492 -0.209508 0.000000 0.000000 0.000000 0.000000 0.000000 0.000000 0.000000 4.257206 -7.888559 -0.100677 48.368923 5.923085 -3.240103 1.680218 49.477360 0.003574 1.506228 -0.876189 -0.008860 0.059204 -0.136999 0.000000 0.000000 0.000000 0.000000 0.000000 0.000000 0.000000 
